<svg width="1024" height="1024" viewBox="0 0 1024 1024" xmlns="http://www.w3.org/2000/svg">
  <!-- Background Circle -->
  <circle cx="512" cy="512" r="450" fill="#00A0DE"/>
  
  <!-- Face -->
  <circle cx="512" cy="530" r="380" fill="#FFFFFF"/>
  
  <!-- Eyes -->
  <ellipse cx="400" cy="420" rx="75" ry="90" fill="#FFFFFF" stroke="#00A0DE" stroke-width="8"/>
  <ellipse cx="624" cy="420" rx="75" ry="90" fill="#FFFFFF" stroke="#00A0DE" stroke-width="8"/>
  <circle cx="400" cy="430" r="30" fill="#000000"/>
  <circle cx="624" cy="430" r="30" fill="#000000"/>
  
  <!-- Nose -->
  <circle cx="512" cy="520" r="50" fill="#DD0000"/>
  <ellipse cx="512" cy="530" rx="15" ry="8" fill="#FFFFFF" opacity="0.6"/>
  
  <!-- Mouth -->
  <path d="M 430 600 Q 512 660 594 600" stroke="#000000" stroke-width="8" fill="none" stroke-linecap="round"/>
  
  <!-- Whiskers -->
  <line x1="200" y1="480" x2="380" y2="490" stroke="#000000" stroke-width="6"/>
  <line x1="200" y1="530" x2="380" y2="530" stroke="#000000" stroke-width="6"/>
  <line x1="200" y1="580" x2="380" y2="570" stroke="#000000" stroke-width="6"/>
  
  <line x1="824" y1="480" x2="644" y2="490" stroke="#000000" stroke-width="6"/>
  <line x1="824" y1="530" x2="644" y2="530" stroke="#000000" stroke-width="6"/>
  <line x1="824" y1="580" x2="644" y2="570" stroke="#000000" stroke-width="6"/>
  
  <!-- Collar -->
  <rect x="370" y="690" width="284" height="40" rx="20" fill="#DD0000"/>
  
  <!-- Bell -->
  <circle cx="512" cy="740" r="50" fill="#FFCC00" stroke="#000000" stroke-width="4"/>
  <circle cx="512" cy="750" r="8" fill="#000000"/>
  <line x1="512" y1="758" x2="512" y2="770" stroke="#000000" stroke-width="4"/>
  
  <!-- AI Element -->
  <g transform="translate(750, 250)">
    <circle cx="0" cy="0" r="80" fill="#00FFFF" opacity="0.3"/>
    <text x="0" y="20" font-family="Arial, sans-serif" font-size="80" font-weight="bold" fill="#00A0DE" text-anchor="middle">AI</text>
  </g>
</svg>